%TF.GenerationSoftware,KiCad,Pcbnew,10.0.3-2.fc44*%
%TF.CreationDate,2026-06-24T23:34:02+05:30*%
%TF.ProjectId,Tiny solar supply,54696e79-2073-46f6-9c61-722073757070,1*%
%TF.SameCoordinates,Original*%
%TF.FileFunction,Legend,Top*%
%TF.FilePolarity,Positive*%
%FSLAX46Y46*%
G04 Gerber Fmt 4.6, Leading zero omitted, Abs format (unit mm)*
G04 Created by KiCad (PCBNEW 10.0.3-2.fc44) date 2026-06-24 23:34:02*
%MOMM*%
%LPD*%
G01*
G04 APERTURE LIST*
%ADD10C,0.100000*%
%ADD11C,0.150000*%
%ADD12C,0.075000*%
%ADD13C,0.120000*%
%ADD14C,0.152400*%
%ADD15C,0.127000*%
%ADD16C,0.200000*%
G04 APERTURE END LIST*
D10*
X118755333Y-86611966D02*
X118722000Y-86645300D01*
X118722000Y-86645300D02*
X118622000Y-86678633D01*
X118622000Y-86678633D02*
X118555333Y-86678633D01*
X118555333Y-86678633D02*
X118455333Y-86645300D01*
X118455333Y-86645300D02*
X118388667Y-86578633D01*
X118388667Y-86578633D02*
X118355333Y-86511966D01*
X118355333Y-86511966D02*
X118322000Y-86378633D01*
X118322000Y-86378633D02*
X118322000Y-86278633D01*
X118322000Y-86278633D02*
X118355333Y-86145300D01*
X118355333Y-86145300D02*
X118388667Y-86078633D01*
X118388667Y-86078633D02*
X118455333Y-86011966D01*
X118455333Y-86011966D02*
X118555333Y-85978633D01*
X118555333Y-85978633D02*
X118622000Y-85978633D01*
X118622000Y-85978633D02*
X118722000Y-86011966D01*
X118722000Y-86011966D02*
X118755333Y-86045300D01*
X119422000Y-86678633D02*
X119022000Y-86678633D01*
X119222000Y-86678633D02*
X119222000Y-85978633D01*
X119222000Y-85978633D02*
X119155333Y-86078633D01*
X119155333Y-86078633D02*
X119088667Y-86145300D01*
X119088667Y-86145300D02*
X119022000Y-86178633D01*
D11*
X107108666Y-75908819D02*
X107108666Y-76623104D01*
X107108666Y-76623104D02*
X107061047Y-76765961D01*
X107061047Y-76765961D02*
X106965809Y-76861200D01*
X106965809Y-76861200D02*
X106822952Y-76908819D01*
X106822952Y-76908819D02*
X106727714Y-76908819D01*
X107489619Y-75908819D02*
X108108666Y-75908819D01*
X108108666Y-75908819D02*
X107775333Y-76289771D01*
X107775333Y-76289771D02*
X107918190Y-76289771D01*
X107918190Y-76289771D02*
X108013428Y-76337390D01*
X108013428Y-76337390D02*
X108061047Y-76385009D01*
X108061047Y-76385009D02*
X108108666Y-76480247D01*
X108108666Y-76480247D02*
X108108666Y-76718342D01*
X108108666Y-76718342D02*
X108061047Y-76813580D01*
X108061047Y-76813580D02*
X108013428Y-76861200D01*
X108013428Y-76861200D02*
X107918190Y-76908819D01*
X107918190Y-76908819D02*
X107632476Y-76908819D01*
X107632476Y-76908819D02*
X107537238Y-76861200D01*
X107537238Y-76861200D02*
X107489619Y-76813580D01*
D10*
X112903047Y-81768109D02*
X112903047Y-82172871D01*
X112903047Y-82172871D02*
X112926857Y-82220490D01*
X112926857Y-82220490D02*
X112950666Y-82244300D01*
X112950666Y-82244300D02*
X112998285Y-82268109D01*
X112998285Y-82268109D02*
X113093523Y-82268109D01*
X113093523Y-82268109D02*
X113141142Y-82244300D01*
X113141142Y-82244300D02*
X113164952Y-82220490D01*
X113164952Y-82220490D02*
X113188761Y-82172871D01*
X113188761Y-82172871D02*
X113188761Y-81768109D01*
X113688762Y-82268109D02*
X113403048Y-82268109D01*
X113545905Y-82268109D02*
X113545905Y-81768109D01*
X113545905Y-81768109D02*
X113498286Y-81839538D01*
X113498286Y-81839538D02*
X113450667Y-81887157D01*
X113450667Y-81887157D02*
X113403048Y-81910966D01*
D11*
X116776500Y-86180619D02*
X116776500Y-86418714D01*
X116538405Y-86323476D02*
X116776500Y-86418714D01*
X116776500Y-86418714D02*
X117014595Y-86323476D01*
X116633643Y-86609190D02*
X116776500Y-86418714D01*
X116776500Y-86418714D02*
X116919357Y-86609190D01*
X116776499Y-87270980D02*
X116776499Y-87032885D01*
X117014594Y-87128123D02*
X116776499Y-87032885D01*
X116776499Y-87032885D02*
X116538404Y-87128123D01*
X116919356Y-86842409D02*
X116776499Y-87032885D01*
X116776499Y-87032885D02*
X116633642Y-86842409D01*
X110577333Y-90624819D02*
X110244000Y-90148628D01*
X110005905Y-90624819D02*
X110005905Y-89624819D01*
X110005905Y-89624819D02*
X110386857Y-89624819D01*
X110386857Y-89624819D02*
X110482095Y-89672438D01*
X110482095Y-89672438D02*
X110529714Y-89720057D01*
X110529714Y-89720057D02*
X110577333Y-89815295D01*
X110577333Y-89815295D02*
X110577333Y-89958152D01*
X110577333Y-89958152D02*
X110529714Y-90053390D01*
X110529714Y-90053390D02*
X110482095Y-90101009D01*
X110482095Y-90101009D02*
X110386857Y-90148628D01*
X110386857Y-90148628D02*
X110005905Y-90148628D01*
X111434476Y-89958152D02*
X111434476Y-90624819D01*
X111196381Y-89577200D02*
X110958286Y-90291485D01*
X110958286Y-90291485D02*
X111577333Y-90291485D01*
D12*
X124802885Y-90523999D02*
X125017171Y-90523999D01*
X125017171Y-90523999D02*
X125060028Y-90538284D01*
X125060028Y-90538284D02*
X125088600Y-90566856D01*
X125088600Y-90566856D02*
X125102885Y-90609713D01*
X125102885Y-90609713D02*
X125102885Y-90638284D01*
X125102885Y-90223999D02*
X125102885Y-90395428D01*
X125102885Y-90309713D02*
X124802885Y-90309713D01*
X124802885Y-90309713D02*
X124845742Y-90338285D01*
X124845742Y-90338285D02*
X124874314Y-90366856D01*
X124874314Y-90366856D02*
X124888600Y-90395428D01*
D11*
X120842066Y-77777180D02*
X121318256Y-77777180D01*
X121318256Y-77777180D02*
X121318256Y-78777180D01*
X119984923Y-77777180D02*
X120556351Y-77777180D01*
X120270637Y-77777180D02*
X120270637Y-78777180D01*
X120270637Y-78777180D02*
X120365875Y-78634323D01*
X120365875Y-78634323D02*
X120461113Y-78539085D01*
X120461113Y-78539085D02*
X120556351Y-78491466D01*
X107362666Y-89370819D02*
X107362666Y-90085104D01*
X107362666Y-90085104D02*
X107315047Y-90227961D01*
X107315047Y-90227961D02*
X107219809Y-90323200D01*
X107219809Y-90323200D02*
X107076952Y-90370819D01*
X107076952Y-90370819D02*
X106981714Y-90370819D01*
X107791238Y-89466057D02*
X107838857Y-89418438D01*
X107838857Y-89418438D02*
X107934095Y-89370819D01*
X107934095Y-89370819D02*
X108172190Y-89370819D01*
X108172190Y-89370819D02*
X108267428Y-89418438D01*
X108267428Y-89418438D02*
X108315047Y-89466057D01*
X108315047Y-89466057D02*
X108362666Y-89561295D01*
X108362666Y-89561295D02*
X108362666Y-89656533D01*
X108362666Y-89656533D02*
X108315047Y-89799390D01*
X108315047Y-89799390D02*
X107743619Y-90370819D01*
X107743619Y-90370819D02*
X108362666Y-90370819D01*
D10*
X121881228Y-85697999D02*
X121909800Y-85726571D01*
X121909800Y-85726571D02*
X121938371Y-85812285D01*
X121938371Y-85812285D02*
X121938371Y-85869428D01*
X121938371Y-85869428D02*
X121909800Y-85955142D01*
X121909800Y-85955142D02*
X121852657Y-86012285D01*
X121852657Y-86012285D02*
X121795514Y-86040856D01*
X121795514Y-86040856D02*
X121681228Y-86069428D01*
X121681228Y-86069428D02*
X121595514Y-86069428D01*
X121595514Y-86069428D02*
X121481228Y-86040856D01*
X121481228Y-86040856D02*
X121424085Y-86012285D01*
X121424085Y-86012285D02*
X121366942Y-85955142D01*
X121366942Y-85955142D02*
X121338371Y-85869428D01*
X121338371Y-85869428D02*
X121338371Y-85812285D01*
X121338371Y-85812285D02*
X121366942Y-85726571D01*
X121366942Y-85726571D02*
X121395514Y-85697999D01*
X121395514Y-85469428D02*
X121366942Y-85440856D01*
X121366942Y-85440856D02*
X121338371Y-85383714D01*
X121338371Y-85383714D02*
X121338371Y-85240856D01*
X121338371Y-85240856D02*
X121366942Y-85183714D01*
X121366942Y-85183714D02*
X121395514Y-85155142D01*
X121395514Y-85155142D02*
X121452657Y-85126571D01*
X121452657Y-85126571D02*
X121509800Y-85126571D01*
X121509800Y-85126571D02*
X121595514Y-85155142D01*
X121595514Y-85155142D02*
X121938371Y-85497999D01*
X121938371Y-85497999D02*
X121938371Y-85126571D01*
D11*
X126184819Y-84240666D02*
X125708628Y-84573999D01*
X126184819Y-84812094D02*
X125184819Y-84812094D01*
X125184819Y-84812094D02*
X125184819Y-84431142D01*
X125184819Y-84431142D02*
X125232438Y-84335904D01*
X125232438Y-84335904D02*
X125280057Y-84288285D01*
X125280057Y-84288285D02*
X125375295Y-84240666D01*
X125375295Y-84240666D02*
X125518152Y-84240666D01*
X125518152Y-84240666D02*
X125613390Y-84288285D01*
X125613390Y-84288285D02*
X125661009Y-84335904D01*
X125661009Y-84335904D02*
X125708628Y-84431142D01*
X125708628Y-84431142D02*
X125708628Y-84812094D01*
X126184819Y-83288285D02*
X126184819Y-83859713D01*
X126184819Y-83573999D02*
X125184819Y-83573999D01*
X125184819Y-83573999D02*
X125327676Y-83669237D01*
X125327676Y-83669237D02*
X125422914Y-83764475D01*
X125422914Y-83764475D02*
X125470533Y-83859713D01*
X108864467Y-75511177D02*
X108077065Y-75511177D01*
X108077065Y-75511177D02*
X108077065Y-75323700D01*
X108077065Y-75323700D02*
X108114560Y-75211214D01*
X108114560Y-75211214D02*
X108189551Y-75136224D01*
X108189551Y-75136224D02*
X108264542Y-75098728D01*
X108264542Y-75098728D02*
X108414523Y-75061233D01*
X108414523Y-75061233D02*
X108527009Y-75061233D01*
X108527009Y-75061233D02*
X108676990Y-75098728D01*
X108676990Y-75098728D02*
X108751981Y-75136224D01*
X108751981Y-75136224D02*
X108826972Y-75211214D01*
X108826972Y-75211214D02*
X108864467Y-75323700D01*
X108864467Y-75323700D02*
X108864467Y-75511177D01*
X108152056Y-74761270D02*
X108114560Y-74723775D01*
X108114560Y-74723775D02*
X108077065Y-74648784D01*
X108077065Y-74648784D02*
X108077065Y-74461308D01*
X108077065Y-74461308D02*
X108114560Y-74386317D01*
X108114560Y-74386317D02*
X108152056Y-74348822D01*
X108152056Y-74348822D02*
X108227046Y-74311326D01*
X108227046Y-74311326D02*
X108302037Y-74311326D01*
X108302037Y-74311326D02*
X108414523Y-74348822D01*
X108414523Y-74348822D02*
X108864467Y-74798766D01*
X108864467Y-74798766D02*
X108864467Y-74311326D01*
D10*
X110423333Y-82221847D02*
X110290000Y-82031371D01*
X110194762Y-82221847D02*
X110194762Y-81821847D01*
X110194762Y-81821847D02*
X110347143Y-81821847D01*
X110347143Y-81821847D02*
X110385238Y-81840895D01*
X110385238Y-81840895D02*
X110404285Y-81859942D01*
X110404285Y-81859942D02*
X110423333Y-81898038D01*
X110423333Y-81898038D02*
X110423333Y-81955180D01*
X110423333Y-81955180D02*
X110404285Y-81993276D01*
X110404285Y-81993276D02*
X110385238Y-82012323D01*
X110385238Y-82012323D02*
X110347143Y-82031371D01*
X110347143Y-82031371D02*
X110194762Y-82031371D01*
X110556666Y-81821847D02*
X110804285Y-81821847D01*
X110804285Y-81821847D02*
X110670952Y-81974228D01*
X110670952Y-81974228D02*
X110728095Y-81974228D01*
X110728095Y-81974228D02*
X110766190Y-81993276D01*
X110766190Y-81993276D02*
X110785238Y-82012323D01*
X110785238Y-82012323D02*
X110804285Y-82050419D01*
X110804285Y-82050419D02*
X110804285Y-82145657D01*
X110804285Y-82145657D02*
X110785238Y-82183752D01*
X110785238Y-82183752D02*
X110766190Y-82202800D01*
X110766190Y-82202800D02*
X110728095Y-82221847D01*
X110728095Y-82221847D02*
X110613809Y-82221847D01*
X110613809Y-82221847D02*
X110575714Y-82202800D01*
X110575714Y-82202800D02*
X110556666Y-82183752D01*
X112728380Y-86633728D02*
X112680761Y-86609919D01*
X112680761Y-86609919D02*
X112633142Y-86562300D01*
X112633142Y-86562300D02*
X112561714Y-86490871D01*
X112561714Y-86490871D02*
X112514095Y-86467061D01*
X112514095Y-86467061D02*
X112466476Y-86467061D01*
X112490285Y-86586109D02*
X112442666Y-86562300D01*
X112442666Y-86562300D02*
X112395047Y-86514680D01*
X112395047Y-86514680D02*
X112371238Y-86419442D01*
X112371238Y-86419442D02*
X112371238Y-86252776D01*
X112371238Y-86252776D02*
X112395047Y-86157538D01*
X112395047Y-86157538D02*
X112442666Y-86109919D01*
X112442666Y-86109919D02*
X112490285Y-86086109D01*
X112490285Y-86086109D02*
X112585523Y-86086109D01*
X112585523Y-86086109D02*
X112633142Y-86109919D01*
X112633142Y-86109919D02*
X112680761Y-86157538D01*
X112680761Y-86157538D02*
X112704571Y-86252776D01*
X112704571Y-86252776D02*
X112704571Y-86419442D01*
X112704571Y-86419442D02*
X112680761Y-86514680D01*
X112680761Y-86514680D02*
X112633142Y-86562300D01*
X112633142Y-86562300D02*
X112585523Y-86586109D01*
X112585523Y-86586109D02*
X112490285Y-86586109D01*
X113180762Y-86586109D02*
X112895048Y-86586109D01*
X113037905Y-86586109D02*
X113037905Y-86086109D01*
X113037905Y-86086109D02*
X112990286Y-86157538D01*
X112990286Y-86157538D02*
X112942667Y-86205157D01*
X112942667Y-86205157D02*
X112895048Y-86228966D01*
D11*
X101012666Y-74892819D02*
X101012666Y-75607104D01*
X101012666Y-75607104D02*
X100965047Y-75749961D01*
X100965047Y-75749961D02*
X100869809Y-75845200D01*
X100869809Y-75845200D02*
X100726952Y-75892819D01*
X100726952Y-75892819D02*
X100631714Y-75892819D01*
X101917428Y-75226152D02*
X101917428Y-75892819D01*
X101679333Y-74845200D02*
X101441238Y-75559485D01*
X101441238Y-75559485D02*
X102060285Y-75559485D01*
D10*
X118797847Y-85410666D02*
X118607371Y-85543999D01*
X118797847Y-85639237D02*
X118397847Y-85639237D01*
X118397847Y-85639237D02*
X118397847Y-85486856D01*
X118397847Y-85486856D02*
X118416895Y-85448761D01*
X118416895Y-85448761D02*
X118435942Y-85429714D01*
X118435942Y-85429714D02*
X118474038Y-85410666D01*
X118474038Y-85410666D02*
X118531180Y-85410666D01*
X118531180Y-85410666D02*
X118569276Y-85429714D01*
X118569276Y-85429714D02*
X118588323Y-85448761D01*
X118588323Y-85448761D02*
X118607371Y-85486856D01*
X118607371Y-85486856D02*
X118607371Y-85639237D01*
X118435942Y-85258285D02*
X118416895Y-85239237D01*
X118416895Y-85239237D02*
X118397847Y-85201142D01*
X118397847Y-85201142D02*
X118397847Y-85105904D01*
X118397847Y-85105904D02*
X118416895Y-85067809D01*
X118416895Y-85067809D02*
X118435942Y-85048761D01*
X118435942Y-85048761D02*
X118474038Y-85029714D01*
X118474038Y-85029714D02*
X118512133Y-85029714D01*
X118512133Y-85029714D02*
X118569276Y-85048761D01*
X118569276Y-85048761D02*
X118797847Y-85277333D01*
X118797847Y-85277333D02*
X118797847Y-85029714D01*
D11*
X125148822Y-82398467D02*
X125148822Y-81611065D01*
X125148822Y-81611065D02*
X125336299Y-81611065D01*
X125336299Y-81611065D02*
X125448785Y-81648560D01*
X125448785Y-81648560D02*
X125523776Y-81723551D01*
X125523776Y-81723551D02*
X125561271Y-81798542D01*
X125561271Y-81798542D02*
X125598766Y-81948523D01*
X125598766Y-81948523D02*
X125598766Y-82061009D01*
X125598766Y-82061009D02*
X125561271Y-82210990D01*
X125561271Y-82210990D02*
X125523776Y-82285981D01*
X125523776Y-82285981D02*
X125448785Y-82360972D01*
X125448785Y-82360972D02*
X125336299Y-82398467D01*
X125336299Y-82398467D02*
X125148822Y-82398467D01*
X126348673Y-82398467D02*
X125898729Y-82398467D01*
X126123701Y-82398467D02*
X126123701Y-81611065D01*
X126123701Y-81611065D02*
X126048710Y-81723551D01*
X126048710Y-81723551D02*
X125973720Y-81798542D01*
X125973720Y-81798542D02*
X125898729Y-81836037D01*
X122025580Y-90336666D02*
X122073200Y-90384285D01*
X122073200Y-90384285D02*
X122120819Y-90527142D01*
X122120819Y-90527142D02*
X122120819Y-90622380D01*
X122120819Y-90622380D02*
X122073200Y-90765237D01*
X122073200Y-90765237D02*
X121977961Y-90860475D01*
X121977961Y-90860475D02*
X121882723Y-90908094D01*
X121882723Y-90908094D02*
X121692247Y-90955713D01*
X121692247Y-90955713D02*
X121549390Y-90955713D01*
X121549390Y-90955713D02*
X121358914Y-90908094D01*
X121358914Y-90908094D02*
X121263676Y-90860475D01*
X121263676Y-90860475D02*
X121168438Y-90765237D01*
X121168438Y-90765237D02*
X121120819Y-90622380D01*
X121120819Y-90622380D02*
X121120819Y-90527142D01*
X121120819Y-90527142D02*
X121168438Y-90384285D01*
X121168438Y-90384285D02*
X121216057Y-90336666D01*
X121120819Y-90003332D02*
X121120819Y-89384285D01*
X121120819Y-89384285D02*
X121501771Y-89717618D01*
X121501771Y-89717618D02*
X121501771Y-89574761D01*
X121501771Y-89574761D02*
X121549390Y-89479523D01*
X121549390Y-89479523D02*
X121597009Y-89431904D01*
X121597009Y-89431904D02*
X121692247Y-89384285D01*
X121692247Y-89384285D02*
X121930342Y-89384285D01*
X121930342Y-89384285D02*
X122025580Y-89431904D01*
X122025580Y-89431904D02*
X122073200Y-89479523D01*
X122073200Y-89479523D02*
X122120819Y-89574761D01*
X122120819Y-89574761D02*
X122120819Y-89860475D01*
X122120819Y-89860475D02*
X122073200Y-89955713D01*
X122073200Y-89955713D02*
X122025580Y-90003332D01*
%TO.C,C1*%
D13*
X119880748Y-87149000D02*
X120403252Y-87149000D01*
X119880748Y-88619000D02*
X120403252Y-88619000D01*
%TO.C,J3*%
X107861000Y-77164500D02*
X107861000Y-78474500D01*
X107861000Y-77164500D02*
X109244000Y-77164500D01*
X108101000Y-77404500D02*
X108101000Y-78474500D01*
X108101000Y-77404500D02*
X114921000Y-77404500D01*
X108101000Y-80554500D02*
X108101000Y-81624500D01*
X108101000Y-81624500D02*
X114921000Y-81624500D01*
X110907667Y-78879500D02*
X110907667Y-80149500D01*
X114921000Y-77404500D02*
X114921000Y-78554500D01*
X114921000Y-80474500D02*
X114921000Y-81624500D01*
X109701000Y-78879500D02*
X110907667Y-78879500D01*
X110907667Y-80149500D01*
X109701000Y-80149500D01*
X109701000Y-78879500D01*
G36*
X109701000Y-78879500D02*
G01*
X110907667Y-78879500D01*
X110907667Y-80149500D01*
X109701000Y-80149500D01*
X109701000Y-78879500D01*
G37*
X109701000Y-78879500D02*
X113321000Y-78879500D01*
X113321000Y-80149500D01*
X109701000Y-80149500D01*
X109701000Y-78879500D01*
%TO.C,U1*%
D14*
X114255550Y-83736139D02*
X114255550Y-84411861D01*
X114255550Y-85648800D02*
X116058950Y-85648800D01*
X116058950Y-82499200D02*
X114255550Y-82499200D01*
%TO.C,R4*%
D13*
X110263000Y-88007564D02*
X110263000Y-87553436D01*
X111733000Y-88007564D02*
X111733000Y-87553436D01*
%TO.C,J1*%
X125874000Y-85488000D02*
X127254000Y-85488000D01*
X125874000Y-86868000D02*
X125874000Y-85488000D01*
X125874000Y-88138000D02*
X125874000Y-90788000D01*
X125874000Y-88138000D02*
X128634000Y-88138000D01*
X125874000Y-90788000D02*
X128634000Y-90788000D01*
X128634000Y-88138000D02*
X128634000Y-90788000D01*
%TO.C,L1*%
D14*
X116801900Y-74676000D02*
X116801900Y-76248260D01*
X116801900Y-80215740D02*
X116801900Y-81788000D01*
X116801900Y-81788000D02*
X124548900Y-81788000D01*
X124548900Y-74676000D02*
X116801900Y-74676000D01*
X124548900Y-76248260D02*
X124548900Y-74676000D01*
X124548900Y-81788000D02*
X124548900Y-80215740D01*
X125768100Y-78232000D02*
G75*
G02*
X125615700Y-78232000I-76200J0D01*
G01*
X125615700Y-78232000D02*
G75*
G02*
X125768100Y-78232000I76200J0D01*
G01*
%TO.C,J2*%
D13*
X106570000Y-83456000D02*
X107950000Y-83456000D01*
X106570000Y-84836000D02*
X106570000Y-83456000D01*
X106570000Y-86106000D02*
X106570000Y-88756000D01*
X106570000Y-86106000D02*
X109330000Y-86106000D01*
X106570000Y-88756000D02*
X109330000Y-88756000D01*
X109330000Y-86106000D02*
X109330000Y-88756000D01*
%TO.C,C2*%
X122280000Y-83821748D02*
X122280000Y-85244252D01*
X124100000Y-83821748D02*
X124100000Y-85244252D01*
%TO.C,R1*%
X126773000Y-82981436D02*
X126773000Y-83435564D01*
X128243000Y-82981436D02*
X128243000Y-83435564D01*
%TO.C,D2*%
D15*
X110236000Y-74158000D02*
X110236000Y-74368000D01*
X110236000Y-76508000D02*
X110236000Y-76718000D01*
X110236000Y-76718000D02*
X114566000Y-76718000D01*
X114566000Y-74158000D02*
X110236000Y-74158000D01*
X114566000Y-74158000D02*
X114566000Y-74368000D01*
X114566000Y-76718000D02*
X114566000Y-76508000D01*
D16*
X116501000Y-75438000D02*
G75*
G02*
X116301000Y-75438000I-100000J0D01*
G01*
X116301000Y-75438000D02*
G75*
G02*
X116501000Y-75438000I100000J0D01*
G01*
%TO.C,R3*%
D13*
X110263000Y-83743436D02*
X110263000Y-84197564D01*
X111733000Y-83743436D02*
X111733000Y-84197564D01*
%TO.C,Q1*%
D10*
X113441000Y-87271000D02*
X113441000Y-87321000D01*
X113441000Y-87321000D02*
X112666000Y-87321000D01*
X113441000Y-90296000D02*
X113441000Y-89946000D01*
X113816000Y-86996000D02*
X113441000Y-87271000D01*
X113916000Y-90296000D02*
X113441000Y-90296000D01*
X114091000Y-86996000D02*
X113816000Y-86996000D01*
X114716000Y-86996000D02*
X115091000Y-86996000D01*
X115091000Y-86996000D02*
X115091000Y-87296000D01*
X115091000Y-89996000D02*
X115091000Y-90296000D01*
X115091000Y-90071000D02*
X115091000Y-89946000D01*
X115091000Y-90296000D02*
X114641000Y-90296000D01*
%TO.C,J4*%
D13*
X94565000Y-77553000D02*
X100565000Y-77553000D01*
X94565000Y-78413000D02*
X94565000Y-77553000D01*
X100565000Y-78413000D02*
X94565000Y-78413000D01*
X103325000Y-79253000D02*
X100565000Y-79253000D01*
X103555000Y-80093000D02*
X103325000Y-80093000D01*
X103555000Y-80953000D02*
X103325000Y-80953000D01*
X103637642Y-77553000D02*
X103325000Y-77553000D01*
X103637642Y-78413000D02*
X103325000Y-78413000D01*
X105985000Y-80523000D02*
X105985000Y-81793000D01*
X105985000Y-81793000D02*
X104715000Y-81793000D01*
X94565000Y-80093000D02*
X100565000Y-80093000D01*
X100565000Y-80953000D01*
X94565000Y-80953000D01*
X94565000Y-80093000D01*
G36*
X94565000Y-80093000D02*
G01*
X100565000Y-80093000D01*
X100565000Y-80953000D01*
X94565000Y-80953000D01*
X94565000Y-80093000D01*
G37*
X100565000Y-76603000D02*
X103325000Y-76603000D01*
X103325000Y-81903000D01*
X100565000Y-81903000D01*
X100565000Y-76603000D01*
%TO.C,R2*%
X119153000Y-83696436D02*
X119153000Y-84150564D01*
X120623000Y-83696436D02*
X120623000Y-84150564D01*
%TO.C,D1*%
D15*
X125720000Y-75813000D02*
X125720000Y-80143000D01*
X125720000Y-80143000D02*
X125930000Y-80143000D01*
X125930000Y-75813000D02*
X125720000Y-75813000D01*
X128280000Y-75813000D02*
X128070000Y-75813000D01*
X128280000Y-80143000D02*
X128070000Y-80143000D01*
X128280000Y-80143000D02*
X128280000Y-75813000D01*
D16*
X127100000Y-81978000D02*
G75*
G02*
X126900000Y-81978000I-100000J0D01*
G01*
X126900000Y-81978000D02*
G75*
G02*
X127100000Y-81978000I100000J0D01*
G01*
%TO.C,C3*%
D13*
X122709000Y-89481252D02*
X122709000Y-88958748D01*
X124179000Y-89481252D02*
X124179000Y-88958748D01*
%TD*%
M02*
