M48
; DRILL file KiCad 10.0.3-2.fc44 date 2026-06-24T23:34:09
; FORMAT={-:-/ absolute / metric / decimal}
; #@! TF.CreationDate,2026-06-24T23:34:09+05:30
; #@! TF.GenerationSoftware,Kicad,Pcbnew,10.0.3-2.fc44
; #@! TF.FileFunction,Plated,1,2,PTH
FMAT,2
METRIC
; #@! TA.AperFunction,Plated,PTH,ViaDrill
T1C0.300
; #@! TA.AperFunction,Plated,PTH,ComponentDrill
T2C0.800
; #@! TA.AperFunction,Plated,PTH,ComponentDrill
T3C1.000
%
G90
G05
T1
X106.934Y-83.058
X109.22Y-88.392
X111.463Y-81.745
X112.014Y-80.645
X112.014Y-86.106
X113.073Y-81.831
X114.808Y-84.074
X117.856Y-84.674
X121.444Y-86.665
X122.295Y-87.751
X123.19Y-86.008
X124.968Y-85.852
X125.222Y-77.47
X125.984Y-86.868
T2
X107.701Y-79.514
X115.321Y-79.514
T3
X104.715Y-77.983
X104.715Y-80.523
X107.95Y-84.836
X107.95Y-87.376
X127.254Y-86.868
X127.254Y-89.408
M30
