%TF.GenerationSoftware,KiCad,Pcbnew,10.0.3-2.fc44*%
%TF.CreationDate,2026-06-24T23:34:02+05:30*%
%TF.ProjectId,Tiny solar supply,54696e79-2073-46f6-9c61-722073757070,1*%
%TF.SameCoordinates,Original*%
%TF.FileFunction,Copper,L1,Top*%
%TF.FilePolarity,Positive*%
%FSLAX46Y46*%
G04 Gerber Fmt 4.6, Leading zero omitted, Abs format (unit mm)*
G04 Created by KiCad (PCBNEW 10.0.3-2.fc44) date 2026-06-24 23:34:02*
%MOMM*%
%LPD*%
G01*
G04 APERTURE LIST*
G04 Aperture macros list*
%AMRoundRect*
0 Rectangle with rounded corners*
0 $1 Rounding radius*
0 $2 $3 $4 $5 $6 $7 $8 $9 X,Y pos of 4 corners*
0 Add a 4 corners polygon primitive as box body*
4,1,4,$2,$3,$4,$5,$6,$7,$8,$9,$2,$3,0*
0 Add four circle primitives for the rounded corners*
1,1,$1+$1,$2,$3*
1,1,$1+$1,$4,$5*
1,1,$1+$1,$6,$7*
1,1,$1+$1,$8,$9*
0 Add four rect primitives between the rounded corners*
20,1,$1+$1,$2,$3,$4,$5,0*
20,1,$1+$1,$4,$5,$6,$7,0*
20,1,$1+$1,$6,$7,$8,$9,0*
20,1,$1+$1,$8,$9,$2,$3,0*%
G04 Aperture macros list end*
%TA.AperFunction,SMDPad,CuDef*%
%ADD10RoundRect,0.250000X-0.250000X-0.475000X0.250000X-0.475000X0.250000X0.475000X-0.250000X0.475000X0*%
%TD*%
%TA.AperFunction,ComponentPad*%
%ADD11RoundRect,0.250000X-0.550000X-0.550000X0.550000X-0.550000X0.550000X0.550000X-0.550000X0.550000X0*%
%TD*%
%TA.AperFunction,ComponentPad*%
%ADD12C,1.600000*%
%TD*%
%TA.AperFunction,SMDPad,CuDef*%
%ADD13R,1.181100X0.558800*%
%TD*%
%TA.AperFunction,SMDPad,CuDef*%
%ADD14RoundRect,0.250000X0.450000X-0.262500X0.450000X0.262500X-0.450000X0.262500X-0.450000X-0.262500X0*%
%TD*%
%TA.AperFunction,ComponentPad*%
%ADD15R,1.700000X1.700000*%
%TD*%
%TA.AperFunction,ComponentPad*%
%ADD16C,1.700000*%
%TD*%
%TA.AperFunction,SMDPad,CuDef*%
%ADD17R,2.667000X3.302000*%
%TD*%
%TA.AperFunction,SMDPad,CuDef*%
%ADD18RoundRect,0.250000X-0.650000X0.325000X-0.650000X-0.325000X0.650000X-0.325000X0.650000X0.325000X0*%
%TD*%
%TA.AperFunction,SMDPad,CuDef*%
%ADD19RoundRect,0.250000X-0.450000X0.262500X-0.450000X-0.262500X0.450000X-0.262500X0.450000X0.262500X0*%
%TD*%
%TA.AperFunction,SMDPad,CuDef*%
%ADD20R,2.120000X1.500000*%
%TD*%
%TA.AperFunction,SMDPad,CuDef*%
%ADD21R,1.300000X0.600000*%
%TD*%
%TA.AperFunction,SMDPad,CuDef*%
%ADD22R,1.500000X2.120000*%
%TD*%
%TA.AperFunction,SMDPad,CuDef*%
%ADD23RoundRect,0.250000X0.475000X-0.250000X0.475000X0.250000X-0.475000X0.250000X-0.475000X-0.250000X0*%
%TD*%
%TA.AperFunction,ViaPad*%
%ADD24C,0.600000*%
%TD*%
%TA.AperFunction,Conductor*%
%ADD25C,0.200000*%
%TD*%
G04 APERTURE END LIST*
D10*
%TO.P,C1,1*%
%TO.N,Net-(J3-Pin_1)*%
X119192000Y-87884000D03*
%TO.P,C1,2*%
%TO.N,GNDD*%
X121092000Y-87884000D03*
%TD*%
D11*
%TO.P,J3,1,Pin_1_1*%
%TO.N,Net-(J3-Pin_1)*%
X107701000Y-79514500D03*
D12*
%TO.P,J3,2,Pin_2_2*%
%TO.N,/BAT_P*%
X115321000Y-79514500D03*
%TD*%
D13*
%TO.P,U1,1,SW_1*%
%TO.N,Net-(U1-SW)*%
X116522500Y-85024001D03*
%TO.P,U1,2,GND_2*%
%TO.N,GNDD*%
X116522500Y-84074000D03*
%TO.P,U1,3,FB_3*%
%TO.N,Net-(U1-FB)*%
X116522500Y-83123999D03*
%TO.P,U1,4,SHDN_4*%
%TO.N,Net-(Q1-D)*%
X113792000Y-83123999D03*
%TO.P,U1,5,VIN_5*%
%TO.N,Net-(J3-Pin_1)*%
X113792000Y-85024001D03*
%TD*%
D14*
%TO.P,R4,1*%
%TO.N,/SOLAR_P*%
X110998000Y-88693000D03*
%TO.P,R4,2*%
%TO.N,GNDD*%
X110998000Y-86868000D03*
%TD*%
D15*
%TO.P,J1,1,Pin_1_1*%
%TO.N,GNDD*%
X127254000Y-86868000D03*
D16*
%TO.P,J1,2,Pin_2_2*%
%TO.N,/OUT_P*%
X127254000Y-89408000D03*
%TD*%
D17*
%TO.P,L1,1,1_1*%
%TO.N,Net-(U1-SW)*%
X123240800Y-78232000D03*
%TO.P,L1,2,2_2*%
%TO.N,Net-(J3-Pin_1)*%
X118110000Y-78232000D03*
%TD*%
D15*
%TO.P,J2,1,Pin_1_1*%
%TO.N,/BAT_P*%
X107950000Y-84836000D03*
D16*
%TO.P,J2,2,Pin_2_2*%
%TO.N,GNDD*%
X107950000Y-87376000D03*
%TD*%
D18*
%TO.P,C2,1*%
%TO.N,/OUT_P*%
X123190000Y-83058000D03*
%TO.P,C2,2*%
%TO.N,GNDD*%
X123190000Y-86008000D03*
%TD*%
D19*
%TO.P,R1,1*%
%TO.N,/OUT_P*%
X127508000Y-82296000D03*
%TO.P,R1,2*%
%TO.N,Net-(U1-FB)*%
X127508000Y-84121000D03*
%TD*%
D20*
%TO.P,D2,A*%
%TO.N,/SOLAR_P*%
X110286000Y-75438000D03*
%TO.P,D2,C*%
%TO.N,/BAT_P*%
X114516000Y-75438000D03*
%TD*%
D19*
%TO.P,R3,1*%
%TO.N,Net-(J3-Pin_1)*%
X110998000Y-83058000D03*
%TO.P,R3,2*%
%TO.N,Net-(Q1-D)*%
X110998000Y-84883000D03*
%TD*%
D21*
%TO.P,Q1,1,G_1*%
%TO.N,/SOLAR_P*%
X113216000Y-87696000D03*
%TO.P,Q1,2,S_2*%
%TO.N,GNDD*%
X113216000Y-89596000D03*
%TO.P,Q1,3,D_3*%
%TO.N,Net-(Q1-D)*%
X115316000Y-88646000D03*
%TD*%
D15*
%TO.P,J4,1,Pin_1_1*%
%TO.N,/SOLAR_P*%
X104715000Y-80523000D03*
D16*
%TO.P,J4,2,Pin_2_2*%
%TO.N,GNDD*%
X104715000Y-77983000D03*
%TD*%
D19*
%TO.P,R2,1*%
%TO.N,Net-(U1-FB)*%
X119888000Y-83011000D03*
%TO.P,R2,2*%
%TO.N,GNDD*%
X119888000Y-84836000D03*
%TD*%
D22*
%TO.P,D1,A*%
%TO.N,Net-(U1-SW)*%
X127000000Y-75863000D03*
%TO.P,D1,C*%
%TO.N,/OUT_P*%
X127000000Y-80093000D03*
%TD*%
D23*
%TO.P,C3,1*%
%TO.N,/OUT_P*%
X123444000Y-90170000D03*
%TO.P,C3,2*%
%TO.N,Net-(U1-FB)*%
X123444000Y-88270000D03*
%TD*%
D24*
%TO.N,Net-(J3-Pin_1)*%
X112014000Y-80645000D03*
%TO.N,GNDD*%
X123190000Y-86008000D03*
X114808000Y-84074000D03*
X112014000Y-86106000D03*
X125984000Y-86868000D03*
%TO.N,Net-(U1-SW)*%
X125222000Y-77470000D03*
X117856000Y-84674000D03*
%TO.N,Net-(U1-FB)*%
X122295265Y-87751265D03*
X121443659Y-86664970D03*
%TO.N,Net-(Q1-D)*%
X113073265Y-81831265D03*
X111462735Y-81744735D03*
%TO.N,/SOLAR_P*%
X109220000Y-88392000D03*
X106934000Y-83058000D03*
%TO.N,/OUT_P*%
X124968000Y-85852000D03*
%TD*%
%TO.N,Net-(J3-Pin_1)*%
D25*
X116651999Y-87884000D02*
X119192000Y-87884000D01*
X114260865Y-80010000D02*
X114046000Y-80010000D01*
X118110000Y-78232000D02*
X118110000Y-78281135D01*
X110998000Y-83058000D02*
X112062735Y-81993265D01*
X114046000Y-80010000D02*
X110998000Y-83058000D01*
X110998000Y-83058000D02*
X111825999Y-83058000D01*
X112062735Y-80693735D02*
X112014000Y-80645000D01*
X114865365Y-80614500D02*
X114260865Y-80010000D01*
X115776635Y-80614500D02*
X114865365Y-80614500D01*
X112062735Y-81993265D02*
X112062735Y-80693735D01*
X111825999Y-83058000D02*
X113792000Y-85024001D01*
X113792000Y-85024001D02*
X116651999Y-87884000D01*
X118110000Y-78281135D02*
X115776635Y-80614500D01*
%TO.N,GNDD*%
X119888000Y-84836000D02*
X119888000Y-86680000D01*
X119888000Y-86680000D02*
X121092000Y-87884000D01*
X105918000Y-83799000D02*
X105865000Y-83746000D01*
X110998000Y-86868000D02*
X110744000Y-86868000D01*
X121314000Y-87884000D02*
X121092000Y-87884000D01*
X107950000Y-87376000D02*
X105918000Y-85344000D01*
X110998000Y-86868000D02*
X111252000Y-86868000D01*
X113216000Y-89086000D02*
X113216000Y-89596000D01*
X114808000Y-84074000D02*
X116522500Y-84074000D01*
X110998000Y-86868000D02*
X113216000Y-89086000D01*
X111252000Y-86868000D02*
X112014000Y-86106000D01*
X110236000Y-87376000D02*
X107950000Y-87376000D01*
X127254000Y-86868000D02*
X125984000Y-86868000D01*
X110744000Y-86868000D02*
X110236000Y-87376000D01*
X105865000Y-83746000D02*
X105865000Y-79133000D01*
X105865000Y-79133000D02*
X104715000Y-77983000D01*
X119126000Y-84074000D02*
X119888000Y-84836000D01*
X116522500Y-84074000D02*
X119126000Y-84074000D01*
X123190000Y-86008000D02*
X121314000Y-87884000D01*
X105918000Y-85344000D02*
X105918000Y-83799000D01*
%TO.N,/BAT_P*%
X114808000Y-76708000D02*
X114808000Y-79001500D01*
X114808000Y-76713000D02*
X111765000Y-79756000D01*
X107950000Y-83571000D02*
X111765000Y-79756000D01*
X114808000Y-75946000D02*
X114808000Y-76708000D01*
X115162500Y-79356000D02*
X115321000Y-79356000D01*
X107950000Y-84836000D02*
X107950000Y-83571000D01*
X114808000Y-76708000D02*
X114808000Y-76713000D01*
X114808000Y-79001500D02*
X115162500Y-79356000D01*
%TO.N,Net-(U1-SW)*%
X125222000Y-77470000D02*
X125222000Y-76250800D01*
X117505999Y-85024001D02*
X117856000Y-84674000D01*
X125222000Y-76250800D02*
X123240800Y-78232000D01*
X127000000Y-75863000D02*
X125609800Y-75863000D01*
X116522500Y-85024001D02*
X117505999Y-85024001D01*
X125609800Y-75863000D02*
X125222000Y-76250800D01*
%TO.N,Net-(U1-FB)*%
X120904000Y-86360000D02*
X121208970Y-86664970D01*
X119888000Y-83011000D02*
X116635499Y-83011000D01*
X127508000Y-84206000D02*
X123444000Y-88270000D01*
X122295265Y-87751265D02*
X122925265Y-87751265D01*
X120904000Y-84027000D02*
X120904000Y-86360000D01*
X116635499Y-83011000D02*
X116522500Y-83123999D01*
X122925265Y-87751265D02*
X123444000Y-88270000D01*
X119888000Y-83011000D02*
X120904000Y-84027000D01*
X121208970Y-86664970D02*
X121443659Y-86664970D01*
X127508000Y-84121000D02*
X127508000Y-84206000D01*
%TO.N,Net-(Q1-D)*%
X110998000Y-84883000D02*
X112053000Y-84883000D01*
X112053000Y-84883000D02*
X115316000Y-88146000D01*
X113073265Y-81831265D02*
X113073265Y-82405264D01*
X110998000Y-84883000D02*
X109998000Y-83883000D01*
X113073265Y-82405264D02*
X113792000Y-83123999D01*
X109998000Y-83883000D02*
X109998000Y-82560756D01*
X115316000Y-88146000D02*
X115316000Y-88646000D01*
X109998000Y-82560756D02*
X110814021Y-81744735D01*
X110814021Y-81744735D02*
X111462735Y-81744735D01*
%TO.N,/SOLAR_P*%
X103565000Y-77506654D02*
X105633654Y-75438000D01*
X112266000Y-90196000D02*
X114166000Y-90196000D01*
X110998000Y-88693000D02*
X110998000Y-88928000D01*
X104715000Y-80523000D02*
X103565000Y-79373000D01*
X108761622Y-78690378D02*
X108801000Y-78729756D01*
X110578000Y-76874000D02*
X108761622Y-78690378D01*
X108485744Y-80614500D02*
X108458000Y-80614500D01*
X110697000Y-88392000D02*
X110998000Y-88693000D01*
X114166000Y-90196000D02*
X114166000Y-88646000D01*
X108801000Y-80299244D02*
X108485744Y-80614500D01*
X108458000Y-81534000D02*
X106934000Y-83058000D01*
X105633654Y-75438000D02*
X110286000Y-75438000D01*
X109220000Y-88392000D02*
X110697000Y-88392000D01*
X103565000Y-79373000D02*
X103565000Y-77506654D01*
X114166000Y-88646000D02*
X113216000Y-87696000D01*
X110998000Y-88928000D02*
X112266000Y-90196000D01*
X108801000Y-78729756D02*
X108801000Y-80299244D01*
X108458000Y-80614500D02*
X108458000Y-81534000D01*
X110578000Y-75946000D02*
X110578000Y-76874000D01*
%TO.N,/OUT_P*%
X123190000Y-83058000D02*
X124968000Y-84836000D01*
X123190000Y-83058000D02*
X126155000Y-80093000D01*
X127000000Y-81788000D02*
X127508000Y-82296000D01*
X124206000Y-89408000D02*
X123444000Y-90170000D01*
X127254000Y-89408000D02*
X124206000Y-89408000D01*
X124968000Y-84836000D02*
X124968000Y-85852000D01*
X126155000Y-80093000D02*
X127000000Y-80093000D01*
X127000000Y-80093000D02*
X127000000Y-81788000D01*
%TD*%
M02*
